{
    "asset" : {
        "generator" : "Khronos glTF Blender I/O v1.8.19",
        "version" : "2.0"
    },
    "scene" : 0,
    "scenes" : [
        {
            "name" : "Scene",
            "nodes" : [
                0,
                1,
                2
            ]
        }
    ],
    "nodes" : [
        {
            "name" : "Mesh",
            "scale" : [
                -0.006885957438498735,
                -0.006885957438498735,
                -0.006885957438498735
            ]
        },
        {
            "name" : "BezierCurve"
        },
        {
            "mesh" : 0,
            "name" : "BezierCurve.001",
            "scale" : [
                -0.006885957438498735,
                -0.006885957438498735,
                -0.006885957438498735
            ]
        }
    ],
    "materials" : [
        {
            "doubleSided" : true,
            "name" : "Material.001",
            "pbrMetallicRoughness" : {
                "baseColorFactor" : [
                    0.18784946203231812,
                    0.3953438699245453,
                    0.8000000715255737,
                    1
                ],
                "metallicFactor" : 0,
                "roughnessFactor" : 0.7741496562957764
            }
        }
    ],
    "meshes" : [
        {
            "name" : "BezierCurve.001",
            "primitives" : [
                {
                    "attributes" : {
                        "POSITION" : 0,
                        "NORMAL" : 1,
                        "TEXCOORD_0" : 2
                    },
                    "indices" : 3,
                    "material" : 0
                }
            ]
        }
    ],
    "accessors" : [
        {
            "bufferView" : 0,
            "componentType" : 5126,
            "count" : 715,
            "max" : [
                1.2799056768417358,
                0.4500000476837158,
                0.7915738224983215
            ],
            "min" : [
                -0.9669232964515686,
                -0.4500000476837158,
                -0.7915738224983215
            ],
            "type" : "VEC3"
        },
        {
            "bufferView" : 1,
            "componentType" : 5126,
            "count" : 715,
            "type" : "VEC3"
        },
        {
            "bufferView" : 2,
            "componentType" : 5126,
            "count" : 715,
            "type" : "VEC2"
        },
        {
            "bufferView" : 3,
            "componentType" : 5123,
            "count" : 2184,
            "type" : "SCALAR"
        }
    ],
    "bufferViews" : [
        {
            "buffer" : 0,
            "byteLength" : 8580,
            "byteOffset" : 0
        },
        {
            "buffer" : 0,
            "byteLength" : 8580,
            "byteOffset" : 8580
        },
        {
            "buffer" : 0,
            "byteLength" : 5720,
            "byteOffset" : 17160
        },
        {
            "buffer" : 0,
            "byteLength" : 4368,
            "byteOffset" : 22880
        }
    ],
    "buffers" : [
        {
            "byteLength" : 27248,
            "uri" : "data:application/octet-stream;base64,"
        }
    ]
}
